<?xml version="1.0" encoding="utf-8"?>
<!-- Generator: Adobe Illustrator 24.0.0, SVG Export Plug-In . SVG Version: 6.00 Build 0)  -->
<svg version="1.1" xmlns="http://www.w3.org/2000/svg" xmlns:xlink="http://www.w3.org/1999/xlink" x="0px" y="0px"
	 viewBox="0 0 283.46 185.86" style="enable-background:new 0 0 283.46 185.86;" xml:space="preserve">
<style type="text/css">
	.st0{fill:none;}
	.st1{fill:#00B2EC;}
	.st2{fill:#FFFFFF;}
	.st3{fill:none;stroke:#707070;stroke-width:1.3841;stroke-miterlimit:10;}
	.st4{fill:#707070;}
</style>
<g id="Layer_1">
	<rect class="st0" width="283.46" height="185.86"/>
</g>
<g id="AS_Direct_logo">
	<g>
		<g>
			<path d="M144.58,50.85c-4.18,0-7.6,1-9.9,2.36v37.01c2.12,1.47,5.78,2.36,10.31,2.36c11.08,0,15.03-9.43,15.03-20.98
				C160.02,59.75,155.72,50.85,144.58,50.85 M144.99,86.16c-1,0-1.89-0.18-2.36-0.35V57.34c0.53-0.24,1.3-0.41,2.24-0.41
				c5.01,0,7.01,4.54,7.01,14.44C151.89,81.91,149.94,86.16,144.99,86.16"/>
			<path d="M168.83,46.79h-0.17c-2.2,0.05-3.98,1.85-3.98,4.12c0,2.24,1.83,4.12,4.07,4.12c2.3,0,4.18-1.88,4.18-4.12
				C172.93,48.64,171.09,46.83,168.83,46.79 M172.63,60.22h-7.66v31.77h7.66V60.22z"/>
			<path d="M189.6,59.62c-5.53,0-8.89,0.9-11.37,2.37v30h7.6V65.82c0.72-0.35,1.57-0.54,2.46-0.54c0.92,0,1.88,0.21,2.78,0.66
				l1.41-6.25C191.47,59.64,190.51,59.62,189.6,59.62"/>
			<path d="M205.11,59.63c-7.54,0-11.91,6.84-11.91,16.38c0,10.27,4.39,16.44,12.6,16.56h0.57c4.08-0.05,7.1-0.98,9.05-2.36
				l-1.71-5.36c-1.24,0.77-3.42,1.65-6.66,1.65c-3.77,0-5.78-2.3-6.25-6.9l14.63-0.06C216.85,67.5,213.12,59.63,205.11,59.63
				 M200.33,74.66c-0.06-5.6,1.77-9.49,4.6-9.49c2.83,0,5.01,3.07,5.01,8.43l-0.05,0.88L200.33,74.66z"/>
			<path d="M231.22,59.63c-6.01,0-10.96,5.6-10.96,16.38c0,10.77,4.42,16.48,10.83,16.56h0.31c3.48-0.03,5.32-1.08,6.48-2.36
				l-1.59-5.19c-0.71,0.71-1.71,1.18-3.36,1.18c-3.07,0-4.95-3.89-4.95-10.31c0-6.25,1.65-10.31,5.07-10.31
				c1.59,0,2.65,0.59,3.24,1.18l1.53-4.77C236.64,60.7,234.63,59.63,231.22,59.63"/>
			<path d="M250.49,50.91l-7.66,2.42v6.9H240v5.72h2.83v17.33c0,5.6,2.83,9.14,8.01,9.14c1.77,0,3.36-0.47,3.83-0.82V86.1
				c-0.41,0.12-0.88,0.29-1.59,0.29c-1.59,0-2.59-1-2.59-3.95v-16.5h4.18v-5.72h-4.18V50.91z"/>
		</g>
		<path class="st1" d="M28.79,35.88c0-3.9,3.19-7.09,7.09-7.09h70.9c3.9,0,7.09,3.19,7.09,7.09v70.9c0,3.9-3.19,7.09-7.09,7.09
			h-70.9c-3.9,0-7.09-3.19-7.09-7.09V35.88z"/>
		<g>
			<path class="st2" d="M61.37,77.07c-1.23,6.03-5.7,8.09-10.22,7.58c-2.38-0.27-4.27-1.57-4.27-4.37c0-3.9,4.43-4.94,9.63-6.16
				c5.25-1.23,13.22-2.91,13.22-11.98c0-8.18-7.6-12.05-12.96-12.24c-8.39-0.28-12.94,3.49-14.64,5.1l2.42,6.05
				c2.97-2.01,5.09-3.49,10.04-3.71c2.69-0.12,7.19,0.7,6.93,4.93c-0.2,3.27-6.94,4.01-11.73,5.12C44.6,68.61,38.6,72.41,38.6,79.83
				c0,8.47,6.56,12.98,12.86,12.98c4.6,0,8.34-2.89,9.91-5.25l0.15,0.09l-0.27,1.33v3.5h7.91V77.05h-7.79V77.07z"/>
			<path class="st2" d="M81.3,77.07c1.23,6.03,5.7,8.09,10.21,7.58c2.38-0.27,4.27-1.57,4.27-4.37c0-3.9-4.43-4.94-9.64-6.16
				c-5.25-1.23-13.22-2.91-13.22-11.98c0-8.18,7.61-12.05,12.96-12.24c8.39-0.28,12.94,3.49,14.63,5.1l-2.42,6.05
				c-2.97-2.01-5.09-3.49-10.04-3.71c-2.68-0.12-7.19,0.7-6.93,4.93c0.2,3.27,6.94,4.01,11.73,5.12
				c5.22,1.21,11.21,5.01,11.21,12.43c0,8.47-6.56,12.98-12.86,12.98c-4.61,0-8.35-2.89-9.92-5.25l-0.15,0.09l0.28,1.33v3.5H73.5
				V77.05h7.8V77.07z"/>
		</g>
		<line class="st3" x1="28.79" y1="128.27" x2="254.67" y2="128.27"/>
		<g>
			<path class="st4" d="M62.99,146.66c-0.03-0.38-0.09-0.74-0.17-1.08c-0.09-0.34-0.23-0.64-0.41-0.9
				c-0.18-0.25-0.43-0.46-0.73-0.61c-0.3-0.15-0.68-0.23-1.13-0.23c-0.63,0-1.13,0.16-1.49,0.48c-0.37,0.31-0.65,0.75-0.85,1.29
				c-0.2,0.54-0.33,1.18-0.39,1.92c-0.06,0.73-0.09,1.52-0.09,2.35c0,0.83,0.03,1.62,0.09,2.35c0.06,0.73,0.19,1.37,0.39,1.92
				c0.2,0.54,0.48,0.98,0.84,1.29c0.37,0.32,0.86,0.48,1.48,0.48c0.62,0,1.11-0.17,1.46-0.49s0.62-0.74,0.79-1.22
				s0.29-1.01,0.33-1.57c0.05-0.56,0.07-1.09,0.07-1.57h-2.84v-1.45h4.46v7.48h-1.33v-1.96h-0.04c-0.19,0.62-0.55,1.15-1.09,1.58
				c-0.54,0.44-1.21,0.66-2.02,0.66c-0.94,0-1.7-0.21-2.28-0.63c-0.58-0.42-1.03-0.97-1.34-1.66c-0.32-0.69-0.53-1.49-0.64-2.39
				c-0.11-0.9-0.16-1.84-0.16-2.8c0-0.9,0.05-1.8,0.16-2.69c0.11-0.89,0.33-1.7,0.67-2.41c0.34-0.71,0.81-1.29,1.41-1.72
				c0.6-0.44,1.41-0.66,2.4-0.66c0.69,0,1.27,0.09,1.75,0.26c0.48,0.17,0.87,0.4,1.19,0.67c0.32,0.28,0.56,0.58,0.74,0.92
				s0.31,0.66,0.39,0.98c0.09,0.31,0.14,0.6,0.16,0.87c0.02,0.26,0.03,0.45,0.03,0.57H62.99z"/>
			<path class="st4" d="M68.45,151.87c0,0.42,0.01,0.87,0.03,1.35c0.02,0.48,0.1,0.93,0.23,1.35c0.13,0.42,0.33,0.76,0.6,1.04
				c0.27,0.28,0.66,0.41,1.17,0.41c0.39,0,0.71-0.09,0.95-0.27c0.24-0.18,0.42-0.4,0.54-0.67c0.12-0.26,0.21-0.54,0.25-0.83
				c0.04-0.29,0.06-0.54,0.06-0.74h1.73c0,0.28-0.05,0.64-0.15,1.08c-0.1,0.44-0.29,0.86-0.56,1.27c-0.27,0.41-0.64,0.76-1.11,1.05
				c-0.47,0.29-1.08,0.43-1.81,0.43c-1.33,0-2.29-0.46-2.88-1.37c-0.58-0.91-0.88-2.31-0.88-4.17c0-0.67,0.04-1.36,0.13-2.05
				c0.09-0.69,0.27-1.32,0.54-1.88c0.28-0.56,0.67-1.02,1.17-1.37c0.5-0.36,1.17-0.53,2.01-0.53c0.82,0,1.47,0.16,1.96,0.48
				c0.48,0.32,0.85,0.74,1.09,1.24c0.24,0.5,0.4,1.07,0.46,1.68c0.07,0.62,0.1,1.22,0.1,1.8v0.69H68.45z M72.29,150.54v-0.58
				c0-0.3-0.03-0.6-0.08-0.92c-0.05-0.31-0.15-0.6-0.29-0.86c-0.14-0.25-0.33-0.46-0.56-0.62c-0.24-0.16-0.54-0.24-0.91-0.24
				c-0.43,0-0.78,0.12-1.04,0.35c-0.26,0.24-0.45,0.51-0.58,0.82c-0.13,0.31-0.22,0.62-0.26,0.94c-0.04,0.32-0.06,0.56-0.06,0.72
				v0.4H72.29z"/>
			<path class="st4" d="M75.82,146.26h1.61v1.27h0.04c0.23-0.5,0.59-0.88,1.09-1.15c0.5-0.27,1.01-0.4,1.53-0.4
				c0.71,0,1.26,0.12,1.64,0.35c0.38,0.23,0.67,0.53,0.85,0.88c0.18,0.35,0.29,0.72,0.31,1.12c0.03,0.4,0.04,0.76,0.04,1.08v7.66
				h-1.69v-7.46c0-0.2-0.01-0.43-0.03-0.69c-0.02-0.26-0.09-0.49-0.19-0.72c-0.11-0.22-0.27-0.41-0.48-0.55
				c-0.22-0.15-0.51-0.22-0.89-0.22c-0.23,0-0.47,0.04-0.72,0.12c-0.25,0.08-0.48,0.21-0.7,0.38c-0.22,0.18-0.39,0.4-0.52,0.68
				c-0.14,0.28-0.2,0.61-0.2,1v7.46h-1.7V146.26z"/>
			<path class="st4" d="M86.45,151.87c0,0.42,0.01,0.87,0.03,1.35s0.1,0.93,0.23,1.35c0.13,0.42,0.33,0.76,0.6,1.04
				c0.27,0.28,0.66,0.41,1.17,0.41c0.39,0,0.71-0.09,0.95-0.27s0.42-0.4,0.54-0.67c0.12-0.26,0.21-0.54,0.25-0.83
				c0.04-0.29,0.06-0.54,0.06-0.74h1.73c0,0.28-0.05,0.64-0.15,1.08c-0.1,0.44-0.29,0.86-0.56,1.27c-0.27,0.41-0.64,0.76-1.11,1.05
				c-0.47,0.29-1.08,0.43-1.81,0.43c-1.33,0-2.29-0.46-2.88-1.37c-0.58-0.91-0.88-2.31-0.88-4.17c0-0.67,0.04-1.36,0.13-2.05
				c0.09-0.69,0.27-1.32,0.54-1.88c0.28-0.56,0.67-1.02,1.17-1.37c0.5-0.36,1.17-0.53,2.01-0.53c0.82,0,1.47,0.16,1.96,0.48
				c0.48,0.32,0.85,0.74,1.09,1.24c0.24,0.5,0.4,1.07,0.46,1.68c0.07,0.62,0.1,1.22,0.1,1.8v0.69H86.45z M90.28,150.54v-0.58
				c0-0.3-0.03-0.6-0.08-0.92c-0.05-0.31-0.15-0.6-0.29-0.86c-0.14-0.25-0.33-0.46-0.56-0.62c-0.24-0.16-0.54-0.24-0.91-0.24
				c-0.43,0-0.78,0.12-1.04,0.35c-0.26,0.24-0.45,0.51-0.58,0.82c-0.13,0.31-0.22,0.62-0.26,0.94c-0.04,0.32-0.06,0.56-0.06,0.72
				v0.4H90.28z"/>
			<path class="st4" d="M190.13,151.87c0,0.42,0.01,0.87,0.03,1.35c0.02,0.48,0.1,0.93,0.23,1.35c0.13,0.42,0.33,0.76,0.6,1.04
				c0.27,0.28,0.66,0.41,1.17,0.41c0.39,0,0.71-0.09,0.95-0.27c0.24-0.18,0.42-0.4,0.54-0.67c0.12-0.26,0.21-0.54,0.25-0.83
				c0.04-0.29,0.06-0.54,0.06-0.74h1.73c0,0.28-0.05,0.64-0.15,1.08c-0.1,0.44-0.29,0.86-0.56,1.27c-0.27,0.41-0.64,0.76-1.11,1.05
				c-0.47,0.29-1.08,0.43-1.81,0.43c-1.33,0-2.29-0.46-2.88-1.37c-0.58-0.91-0.88-2.31-0.88-4.17c0-0.67,0.04-1.36,0.13-2.05
				c0.09-0.69,0.27-1.32,0.54-1.88c0.28-0.56,0.67-1.02,1.17-1.37c0.5-0.36,1.17-0.53,2.01-0.53c0.82,0,1.47,0.16,1.96,0.48
				c0.48,0.32,0.85,0.74,1.09,1.24c0.24,0.5,0.4,1.07,0.46,1.68c0.07,0.62,0.1,1.22,0.1,1.8v0.69H190.13z M193.96,150.54v-0.58
				c0-0.3-0.03-0.6-0.08-0.92c-0.05-0.31-0.15-0.6-0.29-0.86c-0.14-0.25-0.33-0.46-0.56-0.62c-0.24-0.16-0.54-0.24-0.91-0.24
				c-0.43,0-0.78,0.12-1.04,0.35c-0.26,0.24-0.45,0.51-0.58,0.82c-0.13,0.31-0.22,0.62-0.26,0.94c-0.04,0.32-0.06,0.56-0.06,0.72
				v0.4H193.96z"/>
			<path class="st4" d="M93.82,146.26h1.7v1.61h0.04c0.12-0.25,0.25-0.5,0.39-0.73c0.14-0.23,0.31-0.43,0.49-0.6
				c0.19-0.17,0.4-0.31,0.64-0.41c0.23-0.1,0.51-0.15,0.82-0.15c0.34,0,0.59,0.04,0.75,0.12v1.65c-0.08-0.01-0.18-0.03-0.31-0.05
				c-0.13-0.02-0.33-0.03-0.6-0.03c-0.22,0-0.45,0.05-0.7,0.15c-0.26,0.1-0.49,0.26-0.72,0.46c-0.22,0.21-0.41,0.47-0.56,0.8
				c-0.15,0.32-0.23,0.71-0.23,1.15v6.84h-1.7V146.26z"/>
			<path class="st4" d="M99.6,149.53c0-1.22,0.28-2.12,0.85-2.69c0.57-0.57,1.49-0.86,2.78-0.86c0.82,0,1.45,0.11,1.9,0.32
				c0.44,0.22,0.77,0.48,0.98,0.81c0.21,0.32,0.33,0.66,0.36,1.02c0.03,0.36,0.05,0.68,0.05,0.96v6.03c0,0.23,0.02,0.43,0.06,0.6
				c0.04,0.17,0.19,0.26,0.46,0.26c0.11,0,0.19-0.01,0.25-0.03c0.06-0.02,0.11-0.04,0.15-0.07v1.21c-0.07,0.01-0.19,0.03-0.38,0.06
				c-0.19,0.03-0.39,0.04-0.6,0.04c-0.16,0-0.33-0.01-0.49-0.02c-0.17-0.01-0.33-0.06-0.48-0.15c-0.15-0.09-0.28-0.23-0.38-0.41
				c-0.1-0.19-0.16-0.46-0.17-0.81h-0.04c-0.27,0.48-0.64,0.86-1.12,1.14c-0.48,0.28-0.97,0.41-1.48,0.41
				c-1.01,0-1.75-0.28-2.23-0.85c-0.48-0.57-0.72-1.33-0.72-2.3c0-0.77,0.16-1.4,0.49-1.91c0.33-0.5,0.85-0.86,1.54-1.08l2.28-0.69
				c0.31-0.09,0.55-0.19,0.72-0.29c0.17-0.1,0.29-0.21,0.36-0.33c0.07-0.12,0.12-0.26,0.13-0.42c0.01-0.16,0.02-0.36,0.02-0.59
				c0-1.06-0.58-1.59-1.73-1.59c-0.47,0-0.83,0.09-1.08,0.27c-0.25,0.18-0.43,0.39-0.54,0.64c-0.12,0.24-0.18,0.48-0.2,0.72
				c-0.02,0.24-0.03,0.4-0.03,0.49v0.1H99.6z M104.82,151.18c-0.16,0.16-0.36,0.3-0.61,0.4c-0.25,0.11-0.51,0.2-0.78,0.29
				c-0.27,0.09-0.54,0.18-0.8,0.26c-0.26,0.09-0.48,0.19-0.67,0.31c-0.27,0.18-0.47,0.39-0.61,0.64c-0.14,0.25-0.21,0.61-0.21,1.08
				c0,0.56,0.11,1.01,0.33,1.35c0.22,0.34,0.61,0.51,1.19,0.51c0.28,0,0.55-0.06,0.81-0.16c0.26-0.11,0.49-0.26,0.69-0.44
				c0.2-0.19,0.36-0.41,0.48-0.66c0.12-0.25,0.18-0.51,0.18-0.8V151.18z"/>
			<path class="st4" d="M108.79,142.67h1.69v14.4h-1.69V142.67z"/>
			<path class="st4" d="M112.64,142.67h1.69v1.94h-1.69V142.67z M112.64,146.26h1.69v10.81h-1.69V146.26z"/>
			<path class="st4" d="M120.89,151.67c0-0.77,0.06-1.49,0.17-2.18c0.11-0.69,0.32-1.29,0.6-1.8c0.29-0.52,0.69-0.93,1.19-1.24
				c0.5-0.31,1.15-0.46,1.93-0.46c0.78,0,1.42,0.15,1.93,0.46c0.5,0.31,0.9,0.72,1.19,1.24c0.29,0.52,0.49,1.12,0.6,1.8
				c0.11,0.69,0.17,1.41,0.17,2.18c0,0.77-0.06,1.49-0.17,2.18c-0.12,0.69-0.32,1.29-0.62,1.81c-0.3,0.52-0.69,0.93-1.19,1.24
				c-0.5,0.31-1.14,0.46-1.92,0.46c-0.78,0-1.42-0.15-1.93-0.46c-0.51-0.31-0.9-0.72-1.19-1.24c-0.29-0.52-0.49-1.12-0.6-1.81
				C120.94,153.16,120.89,152.43,120.89,151.67z M124.74,156.02c0.44,0,0.79-0.12,1.07-0.35c0.28-0.23,0.5-0.55,0.65-0.95
				c0.16-0.4,0.27-0.86,0.32-1.38c0.05-0.52,0.08-1.08,0.08-1.67c0-0.58-0.03-1.13-0.08-1.66c-0.05-0.53-0.15-0.99-0.31-1.39
				s-0.37-0.71-0.64-0.95c-0.28-0.23-0.64-0.35-1.09-0.35c-0.42,0-0.77,0.12-1.03,0.35c-0.26,0.24-0.47,0.55-0.62,0.95
				c-0.15,0.4-0.25,0.86-0.31,1.39c-0.05,0.53-0.08,1.09-0.08,1.66c0,0.59,0.03,1.15,0.08,1.67c0.05,0.52,0.15,0.99,0.3,1.38
				c0.14,0.4,0.35,0.71,0.62,0.95C123.97,155.91,124.32,156.02,124.74,156.02z"/>
			<path class="st4" d="M135.02,149.43c0-0.69-0.11-1.21-0.33-1.57c-0.22-0.36-0.64-0.54-1.26-0.54c-0.14,0-0.3,0.02-0.5,0.05
				c-0.2,0.03-0.39,0.1-0.57,0.21c-0.18,0.11-0.34,0.27-0.48,0.49c-0.13,0.22-0.2,0.52-0.2,0.9c0,0.32,0.08,0.59,0.23,0.79
				c0.15,0.2,0.36,0.37,0.6,0.51c0.25,0.14,0.53,0.26,0.85,0.35c0.32,0.09,0.64,0.19,0.98,0.3c0.32,0.11,0.64,0.22,0.96,0.35
				c0.32,0.13,0.6,0.3,0.85,0.52c0.25,0.22,0.45,0.5,0.6,0.85c0.15,0.34,0.23,0.78,0.23,1.32c0,0.57-0.09,1.06-0.26,1.48
				c-0.18,0.42-0.42,0.78-0.73,1.06c-0.31,0.28-0.68,0.49-1.11,0.64c-0.43,0.14-0.89,0.21-1.39,0.21c-0.91,0-1.62-0.15-2.13-0.44
				c-0.5-0.3-0.87-0.65-1.11-1.06c-0.24-0.41-0.37-0.83-0.41-1.26c-0.04-0.43-0.06-0.79-0.06-1.07h1.7c0,0.32,0.03,0.64,0.08,0.94
				c0.05,0.3,0.15,0.57,0.3,0.81c0.15,0.23,0.35,0.42,0.62,0.55c0.26,0.14,0.6,0.2,1.02,0.2c0.13,0,0.3-0.02,0.5-0.06
				c0.2-0.04,0.4-0.13,0.6-0.26c0.19-0.13,0.36-0.31,0.49-0.54c0.14-0.23,0.2-0.54,0.2-0.93c0-0.36-0.08-0.66-0.23-0.9
				c-0.15-0.23-0.36-0.43-0.6-0.58s-0.53-0.29-0.85-0.39c-0.31-0.11-0.64-0.22-0.96-0.32c-0.32-0.11-0.65-0.22-0.97-0.35
				c-0.32-0.13-0.61-0.3-0.86-0.51c-0.25-0.22-0.45-0.5-0.6-0.85c-0.15-0.35-0.23-0.8-0.23-1.35c0-0.5,0.09-0.93,0.27-1.31
				c0.18-0.38,0.43-0.69,0.75-0.94c0.32-0.25,0.68-0.43,1.1-0.56s0.86-0.18,1.33-0.18c0.78,0,1.39,0.12,1.83,0.36
				c0.44,0.24,0.77,0.54,0.99,0.89c0.22,0.35,0.35,0.72,0.39,1.12c0.05,0.4,0.07,0.76,0.07,1.08H135.02z"/>
			<path class="st4" d="M138.57,142.67h1.69v1.94h-1.69V142.67z M138.57,146.26h1.69v10.81h-1.69V146.26z"/>
			<path class="st4" d="M149.56,156.39c0,0.81-0.09,1.49-0.27,2.05c-0.18,0.56-0.43,1.01-0.76,1.36c-0.32,0.35-0.71,0.6-1.16,0.76
				c-0.45,0.15-0.94,0.23-1.48,0.23c-0.16,0-0.43-0.01-0.8-0.04c-0.37-0.03-0.75-0.12-1.13-0.29c-0.38-0.17-0.73-0.44-1.05-0.81
				c-0.32-0.37-0.51-0.89-0.57-1.56h1.69c0.04,0.5,0.23,0.85,0.56,1.06c0.34,0.21,0.73,0.31,1.17,0.31c0.54,0,0.95-0.09,1.24-0.27
				c0.29-0.18,0.5-0.4,0.62-0.66c0.13-0.26,0.2-0.52,0.21-0.8c0.01-0.28,0.02-0.51,0.02-0.7v-1.41h-0.04
				c-0.19,0.46-0.51,0.81-0.96,1.07c-0.45,0.25-0.94,0.38-1.48,0.38c-0.52,0-0.97-0.1-1.34-0.3c-0.37-0.2-0.68-0.46-0.93-0.79
				c-0.25-0.32-0.44-0.68-0.59-1.08c-0.14-0.4-0.25-0.8-0.32-1.2c-0.07-0.4-0.12-0.78-0.14-1.14c-0.02-0.36-0.03-0.66-0.03-0.9
				c0-0.73,0.05-1.43,0.16-2.12c0.11-0.69,0.3-1.29,0.57-1.83c0.28-0.53,0.64-0.95,1.09-1.27c0.45-0.31,1.02-0.47,1.7-0.47
				c0.3,0,0.57,0.05,0.84,0.14c0.26,0.09,0.49,0.22,0.7,0.36c0.2,0.15,0.37,0.32,0.51,0.52c0.14,0.2,0.24,0.41,0.29,0.62h0.04v-1.37
				h1.61V156.39z M145.81,147.43c-0.39,0-0.71,0.1-0.96,0.3c-0.25,0.2-0.45,0.48-0.6,0.85c-0.15,0.36-0.25,0.81-0.31,1.33
				c-0.06,0.52-0.09,1.11-0.09,1.75c0,0.44,0.02,0.9,0.07,1.36c0.05,0.46,0.14,0.89,0.27,1.27c0.13,0.38,0.33,0.7,0.58,0.95
				s0.59,0.37,1.02,0.37c0.45,0,0.82-0.1,1.11-0.3c0.28-0.2,0.51-0.48,0.67-0.84c0.16-0.36,0.27-0.78,0.32-1.26s0.08-1,0.08-1.55
				c0-0.52-0.03-1.04-0.08-1.54c-0.05-0.5-0.16-0.96-0.32-1.36c-0.16-0.4-0.38-0.73-0.66-0.97
				C146.63,147.55,146.26,147.43,145.81,147.43z"/>
			<path class="st4" d="M158.73,157.07h-1.61v-1.27h-0.04c-0.23,0.5-0.59,0.88-1.09,1.15c-0.5,0.27-1.01,0.4-1.53,0.4
				c-0.71,0-1.26-0.12-1.64-0.35c-0.38-0.23-0.67-0.53-0.85-0.88c-0.18-0.35-0.29-0.72-0.31-1.12s-0.04-0.76-0.04-1.08v-7.67h1.7
				v7.46c0,0.2,0.01,0.43,0.03,0.69c0.02,0.25,0.08,0.49,0.19,0.72c0.11,0.22,0.27,0.41,0.48,0.56c0.21,0.15,0.51,0.22,0.9,0.22
				c0.23,0,0.47-0.04,0.72-0.12c0.25-0.08,0.48-0.21,0.7-0.38c0.22-0.17,0.39-0.4,0.52-0.68c0.14-0.27,0.2-0.61,0.2-1v-7.46h1.69
				V157.07z"/>
			<path class="st4" d="M160.78,146.26h1.7v1.61h0.04c0.12-0.25,0.25-0.5,0.39-0.73c0.14-0.23,0.31-0.43,0.49-0.6
				c0.19-0.17,0.4-0.31,0.64-0.41c0.23-0.1,0.51-0.15,0.82-0.15c0.34,0,0.59,0.04,0.75,0.12v1.65c-0.08-0.01-0.18-0.03-0.31-0.05
				c-0.13-0.02-0.33-0.03-0.6-0.03c-0.22,0-0.45,0.05-0.7,0.15c-0.26,0.1-0.49,0.26-0.72,0.46c-0.22,0.21-0.41,0.47-0.56,0.8
				c-0.15,0.32-0.23,0.71-0.23,1.15v6.84h-1.7V146.26z"/>
			<path class="st4" d="M166.56,149.53c0-1.22,0.28-2.12,0.85-2.69c0.57-0.57,1.49-0.86,2.78-0.86c0.82,0,1.45,0.11,1.9,0.32
				c0.44,0.22,0.77,0.48,0.98,0.81c0.21,0.32,0.33,0.66,0.36,1.02c0.03,0.36,0.05,0.68,0.05,0.96v6.03c0,0.23,0.02,0.43,0.06,0.6
				c0.04,0.17,0.19,0.26,0.46,0.26c0.11,0,0.19-0.01,0.25-0.03c0.06-0.02,0.11-0.04,0.15-0.07v1.21c-0.07,0.01-0.19,0.03-0.38,0.06
				c-0.19,0.03-0.39,0.04-0.6,0.04c-0.16,0-0.33-0.01-0.49-0.02c-0.17-0.01-0.33-0.06-0.48-0.15s-0.28-0.23-0.38-0.41
				c-0.1-0.19-0.16-0.46-0.17-0.81h-0.04c-0.27,0.48-0.64,0.86-1.12,1.14c-0.48,0.28-0.97,0.41-1.48,0.41
				c-1.01,0-1.75-0.28-2.23-0.85c-0.48-0.57-0.72-1.33-0.72-2.3c0-0.77,0.16-1.4,0.49-1.91c0.33-0.5,0.85-0.86,1.54-1.08l2.28-0.69
				c0.31-0.09,0.55-0.19,0.72-0.29c0.17-0.1,0.29-0.21,0.36-0.33c0.07-0.12,0.12-0.26,0.13-0.42c0.01-0.16,0.02-0.36,0.02-0.59
				c0-1.06-0.58-1.59-1.73-1.59c-0.47,0-0.83,0.09-1.08,0.27c-0.25,0.18-0.43,0.39-0.54,0.64c-0.12,0.24-0.18,0.48-0.2,0.72
				c-0.02,0.24-0.03,0.4-0.03,0.49v0.1H166.56z M171.79,151.18c-0.16,0.16-0.36,0.3-0.61,0.4c-0.25,0.11-0.51,0.2-0.78,0.29
				c-0.27,0.09-0.54,0.18-0.8,0.26c-0.26,0.09-0.48,0.19-0.67,0.31c-0.27,0.18-0.47,0.39-0.61,0.64c-0.14,0.25-0.21,0.61-0.21,1.08
				c0,0.56,0.11,1.01,0.33,1.35c0.22,0.34,0.61,0.51,1.19,0.51c0.28,0,0.55-0.06,0.81-0.16c0.26-0.11,0.49-0.26,0.69-0.44
				c0.2-0.19,0.36-0.41,0.48-0.66c0.12-0.25,0.18-0.51,0.18-0.8V151.18z"/>
			<path class="st4" d="M175.71,146.26h1.61v1.27h0.04c0.23-0.5,0.59-0.88,1.09-1.15c0.5-0.27,1.01-0.4,1.53-0.4
				c0.71,0,1.26,0.12,1.64,0.35c0.38,0.23,0.67,0.53,0.85,0.88c0.18,0.35,0.29,0.72,0.31,1.12c0.03,0.4,0.04,0.76,0.04,1.08v7.66
				h-1.69v-7.46c0-0.2-0.01-0.43-0.03-0.69c-0.02-0.26-0.09-0.49-0.19-0.72c-0.11-0.22-0.27-0.41-0.48-0.55
				c-0.22-0.15-0.51-0.22-0.89-0.22c-0.23,0-0.47,0.04-0.72,0.12c-0.25,0.08-0.48,0.21-0.7,0.38c-0.22,0.18-0.39,0.4-0.52,0.68
				c-0.14,0.28-0.2,0.61-0.2,1v7.46h-1.7V146.26z"/>
			<path class="st4" d="M186.63,158.12c0,0.89-0.2,1.55-0.59,2c-0.4,0.44-1.06,0.67-1.99,0.67c-0.13,0-0.27-0.01-0.39-0.02
				c-0.13-0.01-0.26-0.03-0.39-0.04v-1.45c0.11,0.01,0.21,0.03,0.31,0.04c0.1,0.01,0.2,0.02,0.31,0.02c0.25,0,0.46-0.05,0.6-0.14
				c0.15-0.09,0.25-0.22,0.31-0.38c0.06-0.16,0.1-0.35,0.11-0.57c0.01-0.22,0.02-0.46,0.02-0.72v-11.25h1.69V158.12z M186.63,144.61
				h-1.69v-1.94h1.69V144.61z"/>
			<path class="st4" d="M209.63,157.07h-1.61v-1.33h-0.04c-0.05,0.2-0.15,0.4-0.29,0.59c-0.14,0.2-0.32,0.37-0.52,0.51
				c-0.21,0.15-0.44,0.27-0.7,0.36c-0.26,0.09-0.53,0.14-0.83,0.14c-0.64,0-1.19-0.14-1.63-0.41c-0.44-0.27-0.81-0.66-1.09-1.16
				c-0.28-0.5-0.49-1.1-0.62-1.8c-0.13-0.7-0.19-1.47-0.19-2.32c0-0.56,0.03-1.18,0.1-1.85s0.22-1.28,0.45-1.85
				c0.24-0.56,0.58-1.04,1.03-1.42c0.45-0.38,1.06-0.57,1.82-0.57c0.48,0,0.96,0.13,1.41,0.4c0.46,0.27,0.78,0.64,0.97,1.11h0.04
				v-4.82h1.69V157.07z M203.92,151.67c0,0.65,0.03,1.23,0.09,1.75c0.06,0.52,0.16,0.97,0.31,1.33c0.15,0.36,0.35,0.65,0.6,0.85
				c0.25,0.2,0.57,0.3,0.96,0.3c0.45,0,0.82-0.1,1.11-0.31c0.29-0.21,0.51-0.5,0.66-0.88c0.15-0.38,0.26-0.82,0.31-1.34
				c0.05-0.52,0.08-1.09,0.08-1.7c0-0.52-0.03-1.04-0.08-1.54c-0.05-0.5-0.16-0.96-0.32-1.36c-0.16-0.4-0.38-0.73-0.66-0.97
				c-0.28-0.24-0.65-0.36-1.1-0.36c-0.39,0-0.71,0.1-0.96,0.3c-0.25,0.2-0.45,0.48-0.6,0.85c-0.15,0.36-0.25,0.81-0.31,1.33
				C203.95,150.44,203.92,151.02,203.92,151.67z"/>
			<path class="st4" d="M212.06,154.93h1.81v2.14h-1.81V154.93z"/>
			<path class="st4" d="M223.31,157.07h-1.61v-1.33h-0.04c-0.05,0.2-0.15,0.4-0.29,0.59c-0.14,0.2-0.32,0.37-0.52,0.51
				c-0.21,0.15-0.44,0.27-0.7,0.36c-0.26,0.09-0.53,0.14-0.83,0.14c-0.64,0-1.19-0.14-1.63-0.41c-0.44-0.27-0.81-0.66-1.09-1.16
				c-0.28-0.5-0.49-1.1-0.62-1.8c-0.13-0.7-0.19-1.47-0.19-2.32c0-0.56,0.03-1.18,0.1-1.85s0.22-1.28,0.45-1.85
				c0.24-0.56,0.58-1.04,1.03-1.42c0.45-0.38,1.06-0.57,1.82-0.57c0.48,0,0.96,0.13,1.41,0.4c0.46,0.27,0.78,0.64,0.97,1.11h0.04
				v-4.82h1.69V157.07z M217.6,151.67c0,0.65,0.03,1.23,0.09,1.75c0.06,0.52,0.16,0.97,0.31,1.33c0.15,0.36,0.35,0.65,0.6,0.85
				c0.25,0.2,0.57,0.3,0.96,0.3c0.45,0,0.82-0.1,1.11-0.31c0.29-0.21,0.51-0.5,0.66-0.88c0.15-0.38,0.26-0.82,0.31-1.34
				c0.05-0.52,0.08-1.09,0.08-1.7c0-0.52-0.03-1.04-0.08-1.54c-0.05-0.5-0.16-0.96-0.32-1.36c-0.16-0.4-0.38-0.73-0.66-0.97
				c-0.28-0.24-0.65-0.36-1.1-0.36c-0.39,0-0.71,0.1-0.96,0.3c-0.25,0.2-0.45,0.48-0.6,0.85c-0.15,0.36-0.25,0.81-0.31,1.33
				C217.63,150.44,217.6,151.02,217.6,151.67z"/>
			<path class="st4" d="M225.74,154.93h1.81v2.14h-1.81V154.93z"/>
		</g>
	</g>
</g>
</svg>
