<svg xmlns="http://www.w3.org/2000/svg" viewBox="0 0 220 60" width="220" height="60">
  <!-- Green square background -->
  <rect x="2" y="2" width="56" height="56" fill="#2A6654"/>
  <!-- Red flame -->
  <path d="M49.3 12.1c-2.5-.1-4.7-.3-7.6-.1-7.3.3-14 2.9-19.1 7.2-5.1 4.2-8.7 9.3-10 16.6h.3c2.4-7.8 9.6-14.1 19.9-15.7 3.2-.5 7.6-.3 10.6.2l5.9-8.2z" fill="#CB521C"/>
  <!-- White mountain peaks -->
  <path d="m22.7 35.9 2.1-6.1 2 6.1zm3.6.9 1.9-2.1h4.1l1.7 2.1zm-8.7 1.2 1.1-2.1h4l1.2 2.1z" fill="#FFFFFF"/>
  <!-- Yellow sun rays -->
  <path d="M28.5 38.5l2.4 14c1.8-.5 3.6-1.1 5.3-1.8l-7.7-12.2zm13.6 7.2-13.2-7.2 9.2 11.2c1.6-1.1 2.8-2.5 4-4zm-15.9-7.2 6.8 10.5c1.8-.4 3.7-1.1 5.3-1.8l-12.1-8.7zm-3.2 15.2.9-14.2-6.3 13.6c1.6.4 3.5.6 5.4.6zm-9.8-3.2 9.1-12.1-13.7 8.3c1.4 1.6 2.8 2.7 4.6 3.8zm-6.8-12.2c-.2 1.9 0 3.8.6 5.4l13.6-5.4H6.4z" fill="#C4D600"/>
  <!-- Groupama text -->
  <text x="68" y="32" font-family="Arial, Helvetica, sans-serif" font-size="24" font-weight="700" fill="#2A6654">Groupama</text>
  <!-- Osiguranje text -->
  <text x="68" y="50" font-family="Arial, Helvetica, sans-serif" font-size="15" font-weight="400" fill="#2A6654">Osiguranje</text>
</svg>
